<svg width="40" height="40" viewBox="0 0 40 40" fill="none" xmlns="http://www.w3.org/2000/svg">
<path d="M0 5H30V8.33333C28.1667 8.33333 26.6667 9.83333 26.6667 11.6667V31.6667C26.6667 33.5167 25.1833 35 23.3333 35H6.66667C5.78261 35 4.93476 34.6488 4.30964 34.0237C3.68452 33.3986 3.33333 32.5507 3.33333 31.6667V11.6667C3.33333 10.7826 2.98214 9.93476 2.35702 9.30964C1.7319 8.68452 0.884055 8.33333 0 8.33333L0 5ZM6.66667 8.33333V11.6667H15V13.3333H6.66667V15H11.6667V16.6667H6.66667V18.3333H11.6667V20H6.66667V21.6667H15V23.3333H6.66667V25H11.6667V26.6667H6.66667V31.6667H23.3333V8.33333H6.66667ZM35.8333 25.8333V28.3333H33.3333V25.8333H35.8333ZM32.5 17.5H30V16.6667C30 13.9 32.2333 11.6667 35 11.6667C37.7667 11.6667 40 13.9 40 16.6667C40 18.2833 39.1667 19.8 37.85 20.6833L37.35 21C36.4 21.6667 35.8333 22.7 35.8333 23.8333V24.1667H33.3333V23.8333C33.3333 21.85 34.3333 20 35.9833 18.9167L36.4667 18.6C37.1167 18.1667 37.5 17.45 37.5 16.6667C37.5 15.3 36.3833 14.1667 35 14.1667C33.6167 14.1667 32.5 15.2833 32.5 16.6667V17.5Z" fill="black"/>
</svg>
