<svg width="40" height="40" viewBox="0 0 40 40" fill="none" xmlns="http://www.w3.org/2000/svg">
<path d="M33.333 13.3332H6.66634V9.99984H33.333M33.333 29.9998H6.66634V19.9998H33.333M33.333 6.6665H6.66634C4.81634 6.6665 3.33301 8.14984 3.33301 9.99984V29.9998C3.33301 30.8839 3.6842 31.7317 4.30932 32.3569C4.93444 32.982 5.78229 33.3332 6.66634 33.3332H33.333C34.2171 33.3332 35.0649 32.982 35.69 32.3569C36.3152 31.7317 36.6663 30.8839 36.6663 29.9998V9.99984C36.6663 9.11578 36.3152 8.26794 35.69 7.64281C35.0649 7.01769 34.2171 6.6665 33.333 6.6665Z" fill="black"/>
<path d="M17.0703 26.9766C17.112 26.9896 17.1536 26.9987 17.1953 27.0039C17.237 27.0065 17.2786 27.0078 17.3203 27.0078C17.4245 27.0078 17.5247 26.9935 17.6211 26.9648C17.7174 26.9362 17.8073 26.8958 17.8906 26.8438C17.9766 26.7891 18.0521 26.724 18.1172 26.6484C18.1849 26.5703 18.2396 26.4844 18.2812 26.3906L19.0625 27.1758C18.9635 27.3164 18.849 27.4427 18.7188 27.5547C18.5911 27.6667 18.4518 27.7617 18.3008 27.8398C18.1523 27.918 17.9948 27.9766 17.8281 28.0156C17.6641 28.0573 17.4948 28.0781 17.3203 28.0781C17.026 28.0781 16.7487 28.0234 16.4883 27.9141C16.2305 27.8047 16.0039 27.6523 15.8086 27.457C15.6159 27.2617 15.4635 27.0299 15.3516 26.7617C15.2396 26.4909 15.1836 26.194 15.1836 25.8711C15.1836 25.5404 15.2396 25.2383 15.3516 24.9648C15.4635 24.6914 15.6159 24.4583 15.8086 24.2656C16.0039 24.0729 16.2305 23.9232 16.4883 23.8164C16.7487 23.7096 17.026 23.6562 17.3203 23.6562C17.4948 23.6562 17.6654 23.6771 17.832 23.7188C17.9987 23.7604 18.1562 23.8203 18.3047 23.8984C18.4557 23.9766 18.5964 24.0729 18.7266 24.1875C18.8568 24.2995 18.9714 24.4258 19.0703 24.5664L17.0703 26.9766ZM17.6172 24.7773C17.5677 24.7591 17.5182 24.7474 17.4688 24.7422C17.4219 24.737 17.3724 24.7344 17.3203 24.7344C17.1745 24.7344 17.0365 24.7617 16.9062 24.8164C16.7786 24.8685 16.6667 24.944 16.5703 25.043C16.4766 25.1419 16.4023 25.2617 16.3477 25.4023C16.293 25.5404 16.2656 25.6966 16.2656 25.8711C16.2656 25.9102 16.2669 25.9544 16.2695 26.0039C16.2747 26.0534 16.2812 26.1042 16.2891 26.1562C16.2995 26.2057 16.3112 26.2539 16.3242 26.3008C16.3372 26.3477 16.3542 26.3893 16.375 26.4258L17.6172 24.7773ZM22.875 28H19.3867L21.1484 24.8867H19.3867V23.8242H22.875L21.1133 26.9375H22.875V28Z" fill="black"/>
<path d="M18.667 17.3332H19.2003C19.2003 17.5732 19.5657 17.7776 20.0003 17.7776C20.435 17.7776 20.8003 17.5732 20.8003 17.3332C20.8003 17.0887 20.523 16.9998 19.9363 16.8821C19.371 16.7643 18.667 16.6176 18.667 15.9998C18.667 15.6021 19.059 15.2643 19.6003 15.1509V14.6665H20.4003V15.1509C20.9417 15.2643 21.3337 15.6021 21.3337 15.9998H20.8003C20.8003 15.7598 20.435 15.5554 20.0003 15.5554C19.5657 15.5554 19.2003 15.7598 19.2003 15.9998C19.2003 16.2443 19.4777 16.3332 20.0643 16.4509C20.6297 16.5687 21.3337 16.7154 21.3337 17.3332C21.3337 17.7309 20.9417 18.0687 20.4003 18.1821V18.6665H19.6003V18.1821C19.059 18.0687 18.667 17.7309 18.667 17.3332Z" fill="white"/>
<path d="M24 17.6667H24.5333C24.5333 17.9067 24.8987 18.1111 25.3333 18.1111C25.768 18.1111 26.1333 17.9067 26.1333 17.6667C26.1333 17.4222 25.856 17.3333 25.2693 17.2156C24.704 17.0978 24 16.9511 24 16.3333C24 15.9356 24.392 15.5978 24.9333 15.4844V15H25.7333V15.4844C26.2747 15.5978 26.6667 15.9356 26.6667 16.3333H26.1333C26.1333 16.0933 25.768 15.8889 25.3333 15.8889C24.8987 15.8889 24.5333 16.0933 24.5333 16.3333C24.5333 16.5778 24.8107 16.6667 25.3973 16.7844C25.9627 16.9022 26.6667 17.0489 26.6667 17.6667C26.6667 18.0644 26.2747 18.4022 25.7333 18.5156V19H24.9333V18.5156C24.392 18.4022 24 18.0644 24 17.6667Z" fill="white"/>
<path d="M13 17.6667H13.5333C13.5333 17.9067 13.8987 18.1111 14.3333 18.1111C14.768 18.1111 15.1333 17.9067 15.1333 17.6667C15.1333 17.4222 14.856 17.3333 14.2693 17.2156C13.704 17.0978 13 16.9511 13 16.3333C13 15.9356 13.392 15.5978 13.9333 15.4844V15H14.7333V15.4844C15.2747 15.5978 15.6667 15.9356 15.6667 16.3333H15.1333C15.1333 16.0933 14.768 15.8889 14.3333 15.8889C13.8987 15.8889 13.5333 16.0933 13.5333 16.3333C13.5333 16.5778 13.8107 16.6667 14.3973 16.7844C14.9627 16.9022 15.6667 17.0489 15.6667 17.6667C15.6667 18.0644 15.2747 18.4022 14.7333 18.5156V19H13.9333V18.5156C13.392 18.4022 13 18.0644 13 17.6667Z" fill="white"/>
</svg>
