<svg width="40" height="40" viewBox="0 0 40 40" fill="none" xmlns="http://www.w3.org/2000/svg">
<path d="M35 18.3332C35 27.5832 28.6 36.2332 20 38.3332C11.4 36.2332 5 27.5832 5 18.3332V8.33317L20 1.6665L35 8.33317V18.3332ZM20 34.9998C26.25 33.3332 31.6667 25.8998 31.6667 18.6998V10.4998L20 5.29984L8.33333 10.4998V18.6998C8.33333 25.8998 13.75 33.3332 20 34.9998ZM20 14.8165C22.6667 14.8165 24.8167 16.9665 24.8167 19.6332C24.8167 22.2998 22.6667 24.4498 20 24.4498C17.3333 24.4498 15.1833 22.2832 15.1833 19.6332C15.1833 16.9832 17.35 14.8165 20 14.8165ZM20 9.99984L22.3 13.3332C21.6 13.0332 20.8333 12.8832 20 12.8832C19.1667 12.8832 18.4167 13.0332 17.7 13.3332L20 9.99984ZM11.6667 14.8165L15.6667 14.4832C15.1 14.9998 14.5667 15.5665 14.1667 16.2665C13.75 16.9665 13.5 17.6998 13.3333 18.4665L11.6667 14.8165ZM11.6667 24.4498L13.3833 20.8332C13.5167 21.5498 13.7833 22.2998 14.1667 22.9998C14.5833 23.7165 15.1 24.3165 15.6667 24.7998L11.6667 24.4498ZM28.3333 14.8165L26.6667 18.4665C26.5 17.6998 26.2333 16.9665 25.8333 16.2665C25.4333 15.5665 24.9167 14.9998 24.3333 14.4665L28.3333 14.8165ZM28.3333 24.4498L24.3333 24.7832C24.9 24.2998 25.4167 23.6998 25.8333 22.9998C26.2333 22.2998 26.4833 21.5498 26.6167 20.8332L28.3333 24.4498ZM20 29.2498L17.6833 25.9498C18.4 26.1998 19.1667 26.3665 20 26.3665C20.8333 26.3665 21.5833 26.1998 22.2833 25.9498L20 29.2498Z" fill="black"/>
</svg>
