<svg width="26" height="26" viewBox="0 0 26 26" fill="none" xmlns="http://www.w3.org/2000/svg">
<path d="M14.9821 20.5833C14.8203 20.5839 14.6604 20.5481 14.5142 20.4788C14.3679 20.4094 14.2391 20.3082 14.1371 20.1825L8.90465 13.6825C8.74531 13.4886 8.6582 13.2455 8.6582 12.9946C8.6582 12.7436 8.74531 12.5005 8.90465 12.3066L14.3213 5.80664C14.5052 5.58541 14.7694 5.44628 15.0559 5.41987C15.3424 5.39346 15.6276 5.48192 15.8488 5.66581C16.07 5.84969 16.2092 6.11393 16.2356 6.40039C16.262 6.68685 16.1735 6.97207 15.9896 7.19331L11.1471 13L15.8271 18.8066C15.9596 18.9657 16.0438 19.1593 16.0696 19.3646C16.0955 19.57 16.062 19.7784 15.9731 19.9653C15.8842 20.1523 15.7437 20.3098 15.568 20.4193C15.3924 20.5288 15.1891 20.5857 14.9821 20.5833Z" fill="#7895B2"/>
</svg>
