<svg width="24" height="24" viewBox="0 0 24 24" fill="none" xmlns="http://www.w3.org/2000/svg">
<path d="M16 17.18L16 6.82005C16 6.03005 15.13 5.55005 14.46 5.98005L6.32 11.16C6.17749 11.2502 6.0601 11.375 5.97876 11.5227C5.89742 11.6705 5.85476 11.8364 5.85476 12.0051C5.85476 12.1737 5.89742 12.3396 5.97876 12.4874C6.0601 12.6351 6.17749 12.7599 6.32 12.8501L14.46 18.02C14.6108 18.1176 14.7852 18.1726 14.9647 18.1794C15.1442 18.1861 15.3222 18.1442 15.4799 18.0582C15.6376 17.9722 15.7691 17.8452 15.8607 17.6906C15.9522 17.5361 16.0004 17.3597 16 17.18V17.18Z" fill="#111111"/>
</svg>
