<svg width="26" height="26" viewBox="0 0 26 26" fill="none" xmlns="http://www.w3.org/2000/svg">
<path d="M14.9821 20.5836C14.8203 20.5841 14.6604 20.5484 14.5142 20.479C14.3679 20.4097 14.2391 20.3084 14.1371 20.1827L8.90465 13.6827C8.74531 13.4889 8.6582 13.2457 8.6582 12.9948C8.6582 12.7439 8.74531 12.5007 8.90465 12.3069L14.3213 5.80688C14.5052 5.58565 14.7694 5.44652 15.0559 5.42011C15.3424 5.3937 15.6276 5.48217 15.8488 5.66605C16.07 5.84993 16.2092 6.11417 16.2356 6.40063C16.262 6.6871 16.1735 6.97232 15.9896 7.19355L11.1471 13.0002L15.8271 18.8069C15.9596 18.9659 16.0438 19.1595 16.0696 19.3649C16.0955 19.5702 16.062 19.7787 15.9731 19.9656C15.8842 20.1525 15.7437 20.31 15.568 20.4195C15.3924 20.5291 15.1891 20.586 14.9821 20.5836Z" fill="#838383"/>
</svg>
