<svg width="35" height="35" viewBox="0 0 35 35" fill="none" xmlns="http://www.w3.org/2000/svg">
<path d="M16.1875 12.7872C15.9075 13.1092 15.75 13.5537 15.75 13.9999C15.75 14.232 15.6578 14.4545 15.4937 14.6186C15.3296 14.7827 15.1071 14.8749 14.875 14.8749C14.643 14.8749 14.4204 14.7827 14.2563 14.6186C14.0922 14.4545 14 14.232 14 13.9999C14 13.1722 14.2818 12.3024 14.875 11.6304C15.4823 10.9409 16.38 10.4999 17.5 10.4999C18.62 10.4999 19.5178 10.9409 20.125 11.6304C20.7183 12.3042 21 13.1704 21 13.9999C21 14.8574 20.797 15.5224 20.4715 16.0824C20.1863 16.5707 19.8135 16.9574 19.5178 17.2672L19.4443 17.3424C19.1188 17.6837 18.8685 17.9619 18.6848 18.3119C18.5098 18.6462 18.375 19.0889 18.375 19.7627C18.375 19.9947 18.2828 20.2173 18.1187 20.3814C17.9546 20.5455 17.7321 20.6377 17.5 20.6377C17.268 20.6377 17.0454 20.5455 16.8813 20.3814C16.7172 20.2173 16.625 19.9947 16.625 19.7627C16.625 18.8317 16.8175 18.1054 17.1343 17.4999C17.444 16.9102 17.8518 16.4779 18.1808 16.1332L18.2193 16.0929C18.5483 15.7482 18.7828 15.5032 18.9595 15.2004C19.1258 14.9152 19.25 14.5547 19.25 13.9999C19.25 13.5537 19.0943 13.1074 18.8125 12.7872C18.5448 12.4844 18.13 12.2499 17.5 12.2499C16.87 12.2499 16.4553 12.4844 16.1875 12.7872ZM17.5 24.8709C17.6647 24.8772 17.8289 24.8501 17.9828 24.7914C18.1368 24.7327 18.2773 24.6435 18.396 24.5292C18.5147 24.4149 18.6091 24.2779 18.6736 24.1263C18.7381 23.9746 18.7713 23.8116 18.7713 23.6468C18.7713 23.482 18.7381 23.319 18.6736 23.1673C18.6091 23.0157 18.5147 22.8787 18.396 22.7644C18.2773 22.6501 18.1368 22.5609 17.9828 22.5022C17.8289 22.4435 17.6647 22.4164 17.5 22.4227C17.1751 22.4227 16.8635 22.5517 16.6338 22.7815C16.4041 23.0112 16.275 23.3228 16.275 23.6477C16.275 23.9726 16.4041 24.2841 16.6338 24.5139C16.8635 24.7436 17.1751 24.8727 17.5 24.8727V24.8709ZM3.50002 17.4999C3.50078 14.4406 4.50363 11.4658 6.35518 9.03037C8.20672 6.59498 10.805 4.83311 13.7527 4.01425C16.7004 3.19538 19.8352 3.3646 22.6776 4.49601C25.52 5.62742 27.9136 7.65875 29.4922 10.2793C31.0708 12.8999 31.7476 15.9654 31.419 19.007C31.0905 22.0486 29.7747 24.8989 27.6728 27.1219C25.571 29.3448 22.7988 30.8181 19.7804 31.3165C16.7619 31.8148 13.6633 31.3106 10.9585 29.8812L4.58852 31.4737C4.44191 31.5105 4.28826 31.5088 4.14254 31.4686C3.99681 31.4284 3.86399 31.3511 3.75701 31.2443C3.65003 31.1375 3.57255 31.0048 3.53211 30.8591C3.49167 30.7135 3.48966 30.5598 3.52627 30.4132L5.11876 24.0414C4.05248 22.0261 3.49667 19.78 3.50002 17.4999ZM17.5 5.24992C15.3622 5.24927 13.2614 5.80811 11.4064 6.87089C9.55148 7.93368 8.00696 9.4634 6.92637 11.308C5.84577 13.1527 5.26674 15.248 5.24681 17.3857C5.22688 19.5235 5.76675 21.6292 6.81276 23.4937C6.92262 23.6882 6.95393 23.9173 6.90027 24.1342L5.57727 29.4227L10.8658 28.0997C11.0826 28.046 11.3118 28.0773 11.5063 28.1872C13.1395 29.1021 14.9606 29.6306 16.8299 29.7319C18.6992 29.8333 20.5668 29.505 22.2894 28.772C24.012 28.0391 25.5437 26.9211 26.7668 25.504C27.99 24.0868 28.8721 22.4082 29.3454 20.597C29.8187 18.7858 29.8706 16.8902 29.497 15.0558C29.1235 13.2214 28.3346 11.4971 27.1908 10.0151C26.047 8.53318 24.5787 7.3331 22.8988 6.50705C21.2189 5.68099 19.372 5.25094 17.5 5.24992Z" fill="#7895B2"/>
</svg>
