<svg width="30" height="30" viewBox="0 0 30 30" fill="none" xmlns="http://www.w3.org/2000/svg">
<path d="M10.7422 17.166V9.31836H14.666C15.2038 9.31836 15.7096 9.42318 16.1836 9.63281C16.6576 9.83333 17.0723 10.1113 17.4277 10.4668C17.7832 10.8223 18.0612 11.2415 18.2617 11.7246C18.4714 12.1986 18.5762 12.7044 18.5762 13.2422C18.5762 13.7799 18.4714 14.2904 18.2617 14.7734C18.0612 15.2474 17.7832 15.6621 17.4277 16.0176C17.0723 16.373 16.6576 16.6556 16.1836 16.8652C15.7096 17.0658 15.2038 17.166 14.666 17.166H10.7422Z" fill="#10375C"/>
<path fill-rule="evenodd" clip-rule="evenodd" d="M15 30C23.2843 30 30 23.2843 30 15C30 6.71573 23.2843 0 15 0C6.71573 0 0 6.71573 0 15C0 23.2843 6.71573 30 15 30ZM6.81836 25H10.7422V21.0762L15.1309 21.0488L16.8398 25H21.0098L18.8359 19.873C19.401 19.5176 19.9115 19.0983 20.3672 18.6152C20.8229 18.1322 21.2057 17.6035 21.5156 17.0293C21.8346 16.4551 22.0762 15.849 22.2402 15.2109C22.4134 14.5729 22.5 13.9167 22.5 13.2422C22.5 12.5221 22.4043 11.8294 22.2129 11.1641C22.0306 10.4987 21.7663 9.87435 21.4199 9.29102C21.0827 8.70768 20.6725 8.17904 20.1895 7.70508C19.7155 7.22201 19.1868 6.81185 18.6035 6.47461C18.0293 6.12826 17.4095 5.86393 16.7441 5.68164C16.0788 5.49023 15.3861 5.39453 14.666 5.39453H6.81836V25Z" fill="#10375C"/>
</svg>
