<svg width="21" height="22" viewBox="0 0 21 22" fill="none" xmlns="http://www.w3.org/2000/svg">
<g clip-path="url(#clip0_1423_636)">
<path d="M3.83447 0C1.71034 0 0 1.79179 0 4.01707V17.983C0 20.2082 1.71034 22 3.83447 22H11.0598V13.3994H8.88892V10.3029H11.0598V7.65739C11.0598 5.57894 12.3425 3.67057 15.2972 3.67057C16.4935 3.67057 17.3782 3.79089 17.3782 3.79089L17.3086 6.68252C17.3086 6.68252 16.4064 6.67359 15.4219 6.67359C14.3564 6.67359 14.1855 7.18791 14.1855 8.04173V10.3029H17.3932L17.2535 13.3994H14.1855V22H17.1655C19.2897 22 21 20.2083 21 17.983V4.01709C21 1.79181 19.2897 2.2e-05 17.1655 2.2e-05H3.83445L3.83447 0Z" fill="black"/>
</g>
<defs>
<clipPath id="clip0_1423_636">
<rect width="21" height="22" fill="white"/>
</clipPath>
</defs>
</svg>
