<svg width="21" height="22" viewBox="0 0 21 22" fill="none" xmlns="http://www.w3.org/2000/svg">
<g clip-path="url(#clip0_1423_638)">
<path d="M17.5 6.90365C16.9896 7.14236 16.4382 7.30469 15.8457 7.39062C16.4655 7.00868 16.8893 6.45009 17.1172 5.71484C16.5247 6.07769 15.9141 6.32118 15.2852 6.44531C14.7292 5.8151 14.0319 5.5 13.1934 5.5C12.4004 5.5 11.7236 5.79362 11.1631 6.38086C10.6025 6.9681 10.3223 7.67708 10.3223 8.50781C10.3223 8.78472 10.3451 9.01389 10.3906 9.19531C9.21484 9.12847 8.11198 8.81814 7.08203 8.26432C6.05208 7.7105 5.17708 6.97049 4.45703 6.04427C4.19271 6.5217 4.06055 7.02778 4.06055 7.5625C4.06055 8.65104 4.47526 9.48655 5.30469 10.069C4.8763 10.0595 4.42057 9.93533 3.9375 9.69662V9.72526C3.9375 10.4414 4.16536 11.0788 4.62109 11.6374C5.07682 12.196 5.63737 12.5421 6.30273 12.6758C6.03841 12.7522 5.80599 12.7904 5.60547 12.7904C5.48698 12.7904 5.30924 12.7713 5.07227 12.7331C5.26367 13.3346 5.60319 13.8312 6.09082 14.2227C6.57845 14.6142 7.13216 14.8147 7.75195 14.8242C6.69466 15.6836 5.50521 16.1133 4.18359 16.1133C3.94661 16.1133 3.71875 16.099 3.5 16.0703C4.84896 16.9679 6.31641 17.4167 7.90234 17.4167C8.92318 17.4167 9.88021 17.2472 10.7734 16.9082C11.6667 16.5692 12.4323 16.1157 13.0703 15.5475C13.7083 14.9794 14.2575 14.3253 14.7178 13.5853C15.1781 12.8453 15.5199 12.0718 15.7432 11.265C15.9665 10.4581 16.0781 9.65365 16.0781 8.85156C16.0781 8.67969 16.0736 8.55078 16.0645 8.46484C16.6387 8.03516 17.1172 7.51476 17.5 6.90365ZM21 4.125V17.875C21 19.0113 20.6149 19.9829 19.8447 20.7897C19.0745 21.5966 18.1471 22 17.0625 22H3.9375C2.85286 22 1.92546 21.5966 1.15527 20.7897C0.385091 19.9829 0 19.0113 0 17.875V4.125C0 2.98872 0.385091 2.01714 1.15527 1.21029C1.92546 0.403429 2.85286 0 3.9375 0H17.0625C18.1471 0 19.0745 0.403429 19.8447 1.21029C20.6149 2.01714 21 2.98872 21 4.125Z" fill="black"/>
</g>
<defs>
<clipPath id="clip0_1423_638">
<rect width="21" height="22" fill="white"/>
</clipPath>
</defs>
</svg>
