<svg width="22" height="22" viewBox="0 0 22 22" fill="none" xmlns="http://www.w3.org/2000/svg">
<path d="M14.52 10.5875C14.52 11.2576 14.3136 11.9126 13.9268 12.4698C13.54 13.0269 12.9902 13.4612 12.347 13.7176C11.7038 13.974 10.9961 14.0411 10.3133 13.9104C9.63047 13.7797 9.00326 13.457 8.51098 12.9832C8.0187 12.5094 7.68346 11.9057 7.54764 11.2485C7.41182 10.5913 7.48152 9.91004 7.74794 9.29097C8.01436 8.67189 8.46553 8.14276 9.04439 7.77048C9.62325 7.3982 10.3038 7.1995 11 7.1995C11.9327 7.20229 12.8263 7.56014 13.4858 8.19491C14.1453 8.82968 14.5171 9.68981 14.52 10.5875ZM22 5.929V15.246C22 16.8185 21.351 18.3265 20.1958 19.4384C19.0406 20.5503 17.4737 21.175 15.84 21.175H6.16C4.52627 21.175 2.95945 20.5503 1.80422 19.4384C0.648998 18.3265 0 16.8185 0 15.246V5.929C0 4.35653 0.648998 2.84847 1.80422 1.73656C2.95945 0.624661 4.52627 0 6.16 0H15.84C17.4737 0 19.0406 0.624661 20.1958 1.73656C21.351 2.84847 22 4.35653 22 5.929ZM16.28 10.5875C16.28 9.58237 15.9703 8.59982 15.3902 7.76409C14.81 6.92836 13.9854 6.27699 13.0206 5.89234C12.0558 5.5077 10.9941 5.40706 9.96992 5.60315C8.9457 5.79924 8.0049 6.28325 7.26648 6.99398C6.52806 7.70471 6.02518 8.61024 5.82145 9.59605C5.61772 10.5819 5.72229 11.6037 6.12192 12.5323C6.52155 13.4609 7.1983 14.2546 8.06659 14.813C8.93488 15.3714 9.95571 15.6695 11 15.6695C12.4003 15.6695 13.7433 15.1341 14.7335 14.181C15.7237 13.228 16.28 11.9353 16.28 10.5875ZM18.04 5.082C18.04 4.83072 17.9626 4.58508 17.8175 4.37615C17.6725 4.16722 17.4663 4.00437 17.2251 3.90821C16.9839 3.81205 16.7185 3.78689 16.4625 3.83591C16.2064 3.88493 15.9712 4.00594 15.7866 4.18362C15.602 4.3613 15.4763 4.58768 15.4254 4.83414C15.3744 5.08059 15.4006 5.33605 15.5005 5.5682C15.6004 5.80035 15.7696 5.99878 15.9866 6.13838C16.2037 6.27799 16.4589 6.3525 16.72 6.3525C17.0701 6.3525 17.4058 6.21864 17.6534 5.98038C17.9009 5.74211 18.04 5.41896 18.04 5.082Z" fill="black"/>
</svg>
