<svg width="30" height="30" viewBox="0 0 30 30" fill="none" xmlns="http://www.w3.org/2000/svg">
<path d="M15 2.5C19.1375 2.5 22.5 5.825 22.5 9.9375C22.5 15.5125 15 23.75 15 23.75C15 23.75 7.5 15.5125 7.5 9.9375C7.5 5.825 10.8625 2.5 15 2.5ZM15 7.5C14.337 7.5 13.7011 7.76339 13.2322 8.23223C12.7634 8.70107 12.5 9.33696 12.5 10C12.5 10.663 12.7634 11.2989 13.2322 11.7678C13.7011 12.2366 14.337 12.5 15 12.5C15.663 12.5 16.2989 12.2366 16.7678 11.7678C17.2366 11.2989 17.5 10.663 17.5 10C17.5 9.33696 17.2366 8.70107 16.7678 8.23223C16.2989 7.76339 15.663 7.5 15 7.5ZM25 23.75C25 26.5125 20.525 28.75 15 28.75C9.475 28.75 5 26.5125 5 23.75C5 22.1375 6.525 20.7 8.8875 19.7875L9.6875 20.925C8.3375 21.4875 7.5 22.2625 7.5 23.125C7.5 24.85 10.8625 26.25 15 26.25C19.1375 26.25 22.5 24.85 22.5 23.125C22.5 22.2625 21.6625 21.4875 20.3125 20.925L21.1125 19.7875C23.475 20.7 25 22.1375 25 23.75Z" fill="black"/>
</svg>
