<svg width="64" height="64" viewBox="0 0 64 64" fill="none" xmlns="http://www.w3.org/2000/svg">
<path d="M57.1995 22.1C51.6995 7.3 33.6995 13.9 31.9995 21.3C29.6995 13.4 12.1995 7.5 6.79954 22.1C0.799541 38.3 29.8995 52.8 31.9995 55.2C34.0995 53.3 63.1995 38 57.1995 22.1Z" fill="#FF5A79"/>
<path d="M60 18.5C59.4 16.6 58.4 14.9 57 13.5C55.7 12.1 54 11 52.3 10.3C51.4 9.89999 50.5 9.69999 49.6 9.49999C49.1 9.39999 48.7 9.39999 48.2 9.29999H46.8L48 9.89999L49.2 10.5C50 10.9 50.8 11.3 51.5 11.8C53 12.7 54.3 13.8 55.5 15C56.7 16.2 57.6 17.6 58.5 19.2C58.9 20 59.3 20.8 59.6 21.6C59.8 22 59.9 22.5 60.1 22.9L60.6 24.2C60.7 23.7 60.7 23.2 60.7 22.8C60.7 22.3 60.7 21.8 60.6 21.4C60.5 20.4 60.3 19.4 60 18.5M62 15.8C61.9 15.1 61.8 14.4 61.6 13.7C61.2 12.3 60.4 11 59.4 9.89999C58.4 8.79999 57.2 7.99999 55.9 7.59999C55.2 7.39999 54.6 7.19999 53.9 7.09999C53.6 7.09999 53.2 6.99999 52.9 6.99999C52.6 6.99999 52.2 6.99999 51.9 7.09999C52.2 7.29999 52.5 7.39999 52.8 7.59999C53 7.69999 53.3 7.89999 53.6 7.99999C54.2 8.29999 54.7 8.59999 55.2 8.99999C56.2 9.69999 57.2 10.5 58 11.3C58.8 12.2 59.5 13.2 60.2 14.3C60.5 14.8 60.8 15.4 61.1 16C61.2 16.3 61.4 16.6 61.5 16.9C61.6 17.2 61.8 17.5 61.9 17.9C62 17.5 62 17.2 62 16.8V15.8M4.3 21.6C4.6 20.8 5 19.9 5.4 19.2C6.2 17.6 7.2 16.2 8.4 15C9.6 13.8 10.9 12.7 12.4 11.8C13.1 11.3 13.9 10.9 14.7 10.5L15.9 9.89999L17.1 9.29999H15.7C15.2 9.29999 14.8 9.39999 14.3 9.49999C13.4 9.69999 12.5 9.89999 11.6 10.3C9.9 11 8.3 12.1 7 13.5C5.7 14.9 4.6 16.6 4 18.5C3.7 19.4 3.5 20.4 3.4 21.3C3.3 21.8 3.3 22.3 3.3 22.7C3.3 23.2 3.3 23.7 3.4 24.1L3.9 22.8C4 22.4 4.1 22 4.3 21.6M6 11.4C6.8 10.5 7.8 9.69999 8.8 8.99999C9.3 8.69999 9.9 8.29999 10.4 7.99999C10.7 7.79999 11 7.69999 11.3 7.49999C11.6 7.29999 11.9 7.19999 12.2 6.99999C11.9 6.99999 11.5 6.89999 11.2 6.89999C10.9 6.89999 10.5 6.89999 10.2 6.99999C9.5 7.09999 8.9 7.29999 8.2 7.49999C6.8 8.09999 5.6 8.89999 4.6 9.89999C3.6 11 2.8 12.3 2.4 13.7C2.2 14.4 2.1 15.1 2 15.8V16.9C2 17.3 2 17.6 2.1 18C2.2 17.7 2.4 17.4 2.5 17C2.7 16.6 2.8 16.3 3 16C3.3 15.4 3.6 14.8 3.9 14.3C4.5 13.2 5.2 12.2 6 11.4M7.8 40.5L7.7 40.7C8.2 42.2 9 43.4 9.8 44.6C10.6 45.8 11.6 46.8 12.6 47.7C13.6 48.6 14.7 49.5 15.9 50.3C17.1 51.1 18.4 51.7 19.9 52.1L20 51.9C18 49.9 16 48 14 46.1C11.9 44.3 9.9 42.3 7.8 40.5M3.6 43.5L3.5 43.7C4.2 45.4 5.1 46.8 6.1 48.1C7.1 49.4 8.2 50.6 9.4 51.7C10.6 52.8 11.8 53.8 13.2 54.8C14.6 55.7 16 56.6 17.7 57.1L17.8 56.9C15.5 54.6 13.1 52.4 10.8 50.1C8.4 47.9 6 45.6 3.6 43.5M51.5 47.7C52.5 46.7 53.5 45.7 54.3 44.6C55.1 43.5 55.9 42.2 56.4 40.7L56.3 40.5C54.2 42.3 52.2 44.3 50.1 46.1C48.1 48 46.1 49.9 44.1 51.9L44.2 52.1C45.7 51.7 47 51 48.2 50.3C49.4 49.5 50.4 48.6 51.5 47.7M53.2 50.1C50.9 52.4 48.5 54.6 46.2 56.9L46.3 57.1C48 56.5 49.4 55.7 50.8 54.8C52.2 53.9 53.4 52.9 54.6 51.7C55.8 50.6 56.9 49.4 57.9 48.1C58.9 46.8 59.8 45.4 60.5 43.7L60.4 43.5C58 45.6 55.6 47.9 53.2 50.1" fill="#FF5A79"/>
</svg>
